# xmcd
#
# Track frame offsets:
#       150
#       19213
#       30233
#       45110
#       58323
#       66755
#       84242
#       102215
#       114953
#       125563
#       143615
#       163818
#
# Disc length: 2369 seconds
#
# Revision: 2
# Processed by: cddbd v1.5.1PL0 Copyright (c) Steve Scherf et al.
# Submitted via: MusiCat 1.1
#
DISCID=91093f0c
DTITLE=Anthoy Ventura Orchestra - 15 Sucessos Inesquecíveis - Vol. 2
DYEAR=1900
DGENRE=
TTITLE0=Speak Soflty Love/Somewhere-Over The Rainbow
TTITLE1=Limeligth (Luzes da Ribalta)
TTITLE2=Comme D'Hatitude (My Way)
TTITLE3=Moon River
TTITLE4=Stranger On The Shore
TTITLE5=Arranjuez)Mon Amour)
TTITLE6=Hymne a L'Amour
TTITLE7=More
TTITLE8=Georgia On My Mind
TTITLE9=You've Loste That Lovin'Feelin/Unchained Melody
TTITLE10=Lara's Theme/Song Sung Blue
TTITLE11=San Francisco
EXTD=\n\n
EXTT0=
EXTT1=
EXTT2=
EXTT3=
EXTT4=
EXTT5=
EXTT6=
EXTT7=
EXTT8=
EXTT9=
EXTT10=
EXTT11=
PLAYORDER=
